HIERARCHY
ROOT Hips
{
  OFFSET 52.9591 94.0208 13.3675
  CHANNELS 6 Xposition Yposition Zposition Zrotation Xrotation Yrotation
  JOINT spine
  {
    OFFSET 0 7.80059 0.448573
    CHANNELS 3 Zrotation Xrotation Yrotation
    JOINT spine1
    {
      OFFSET 0 10.1364 0
      CHANNELS 3 Zrotation Xrotation Yrotation
      JOINT spine2
      {
        OFFSET 0 9.71251 0
        CHANNELS 3 Zrotation Xrotation Yrotation
        JOINT Neck
        {
          OFFSET 0 24.9361 1.18887
          CHANNELS 3 Zrotation Xrotation Yrotation
          JOINT Head
          {
            OFFSET 0 7.53384 0
            CHANNELS 3 Zrotation Xrotation Yrotation
            End Site
            {
              OFFSET 0 18.2361 -6.01402
            }
          }
        }
        JOINT RightShoulder
        {
          OFFSET -4.08965 10.4888 -0.569457
          CHANNELS 3 Zrotation Xrotation Yrotation
          JOINT RightArm
          {
            OFFSET 0 13.757 0
            CHANNELS 3 Zrotation Xrotation Yrotation
            JOINT RightArmRoll
            {
              OFFSET 0 6.94478 0
              CHANNELS 3 Zrotation Xrotation Yrotation
              JOINT RightForeArm
              {
                OFFSET 0 20.2277 0
                CHANNELS 3 Zrotation Xrotation Yrotation
                JOINT RightForeArmRoll
                {
                  OFFSET 0 7.79312 0
                  CHANNELS 3 Zrotation Xrotation Yrotation
                  JOINT RightHand
                  {
                    OFFSET 0 15.6391 0
                    CHANNELS 3 Zrotation Xrotation Yrotation
                    End Site
                    {
                      OFFSET 0 0 0
                    }
                  }
                }
              }
            }
          }
        }
        JOINT LeftShoulder
        {
          OFFSET 4.08965 10.4888 -0.569457
          CHANNELS 3 Zrotation Xrotation Yrotation
          JOINT LeftArm
          {
            OFFSET 0 13.757 0
            CHANNELS 3 Zrotation Xrotation Yrotation
            JOINT LeftArmRoll
            {
              OFFSET 0 6.94478 0
              CHANNELS 3 Zrotation Xrotation Yrotation
              JOINT LeftForeArm
              {
                OFFSET 0 20.2277 0
                CHANNELS 3 Zrotation Xrotation Yrotation
                JOINT LeftForeArmRoll
                {
                  OFFSET 0 7.79312 0
                  CHANNELS 3 Zrotation Xrotation Yrotation
                  JOINT LeftHand
                  {
                    OFFSET 0 15.6391 0
                    CHANNELS 3 Zrotation Xrotation Yrotation
                    End Site
                    {
                      OFFSET 0 0 0
                    }
                  }
                }
              }
            }
          }
        }
      }
    }
  }
  JOINT RightUpLeg
  {
    OFFSET -6.91416 -1.26788 -1.06358
    CHANNELS 3 Zrotation Xrotation Yrotation
    JOINT RightUpLegRoll
    {
      OFFSET 0 18.3378 0
      CHANNELS 3 Zrotation Xrotation Yrotation
      JOINT RightLeg
      {
        OFFSET 0 -22.7085 0
        CHANNELS 3 Zrotation Xrotation Yrotation
        JOINT RightLegRoll
        {
          OFFSET 0 22.7828 0
          CHANNELS 3 Zrotation Xrotation Yrotation
          JOINT RightFoot
          {
            OFFSET 0 18.9629 0
            CHANNELS 3 Zrotation Xrotation Yrotation
            JOINT RightToeBase
            {
              OFFSET 0 15.852 0
              CHANNELS 3 Zrotation Xrotation Yrotation
              End Site
              {
                OFFSET 0.00671906 7.67701 -0.884893
              }
            }
          }
        }
      }
    }
  }
  JOINT LeftUpLeg
  {
    OFFSET 6.91416 -1.26788 -1.06358
    CHANNELS 3 Zrotation Xrotation Yrotation
    JOINT LeftUpLegRoll
    {
      OFFSET 0 18.3379 0
      CHANNELS 3 Zrotation Xrotation Yrotation
      JOINT LeftLeg
      {
        OFFSET 0 22.7084 0
        CHANNELS 3 Zrotation Xrotation Yrotation
        JOINT LeftLegRoll
        {
          OFFSET 0 22.9934 0
          CHANNELS 3 Zrotation Xrotation Yrotation
          JOINT LeftFoot
          {
            OFFSET 0 18.7522 0
            CHANNELS 3 Zrotation Xrotation Yrotation
            JOINT LeftToeBase
            {
              OFFSET 0 15.852 0
              CHANNELS 3 Zrotation Xrotation Yrotation
              End Site
              {
                OFFSET -0.030112 7.67701 -0.884892
              }
            }
          }
        }
      }
    }
  }
}
MOTION
Frames: 13
Frame Time: 0.00208333
53.6889 94.1569 11.9287 -0.221672 -5.00293 -0.0991043 -0.0806921 -0.934306 0.336243 -0.163063 2.11004 0.670666 -0.171298 3.75506 0.687223 -3.49447 13.6473 -1.86519 6.50537 -9.68006 -1.60532 79.3447 -4.36089 -4.05293 96.7004 14.8667 3.60465 3.97569e-016 0 -0 15.1543 25.2626 -4.40131 3.90692e-006 -4.90297e-006 -3 8.02889 -4.95159 0.697764 -66.2782 1.92171 -0.101473 -110.068 5.35046 -7.30235 -2.94453e-006 1.09356e-007 1.82252e-007 -6.54439 20.9447 2.54442 4.04526e-006 -1.31499e-006 3 -8.02938 -4.95156 -0.697692 175.549 -0.462148 0.407956 -180 7.0158e-015 179.078 179.984 9.29923 179.212 -3.16293e-006 -2.1062e-006 -0.0466752 -14.5294 68.1658 19.6303 8.13649 25.2327 -3.48774 -179.325 -2.37224 6.5151 4.54188e-006 -4.6773e-006 -1.43048 -4.46812 -10.7454 -0.216907 -2.79087e-006 2.9299e-007 -0.2636 25.0142 72.0007 -23.9034 -8.13649 25.2327 3.48774 
53.6877 94.1569 11.9293 -0.227588 -5.00668 -0.110023 -0.0801362 -0.933985 0.336253 -0.161744 2.1124 0.670284 -0.169974 3.75741 0.685521 -3.47487 13.6259 -1.86134 6.48852 -9.67117 -1.59915 79.3658 -4.36078 -4.05416 96.6459 14.8601 3.74777 1.78906e-015 1.59028e-015 -0 15.1029 25.1321 -4.37406 3.90692e-006 -4.90297e-006 -3 8.02889 -4.95159 0.697764 -66.26 1.91151 -0.098573 -110.078 5.28092 -7.40866 -2.94453e-006 1.09356e-007 1.82252e-007 -6.49492 20.8914 2.52864 4.04526e-006 -1.31499e-006 3 -8.02938 -4.95156 -0.697692 175.556 -0.470387 0.404623 -180 7.0158e-015 179.078 179.984 9.28957 179.213 -3.16293e-006 -2.1062e-006 -0.0469458 -14.5261 68.158 19.6245 8.13649 25.2327 -3.48774 -179.319 -2.372 6.51104 4.54188e-006 -4.6773e-006 -1.43044 -4.46871 -10.7526 -0.217574 -2.79087e-006 2.9299e-007 -0.263574 25.0125 71.9996 -23.9009 -8.13649 25.2327 3.48774 
53.6821 94.1495 11.9228 -0.233647 -5.01045 -0.120963 -0.0795573 -0.93372 0.336263 -0.160398 2.11471 0.66986 -0.168623 3.75972 0.683721 -3.45513 13.6046 -1.85753 6.47162 -9.66187 -1.59299 79.387 -4.36068 -4.0554 96.5926 14.8541 3.88749 1.88845e-014 3.18055e-015 2.38542e-015 15.0533 25.003 -4.34727 3.90692e-006 -4.90297e-006 -3 8.02889 -4.95159 0.697764 -66.241 1.90112 -0.0956865 -110.088 5.21201 -7.51165 -2.94453e-006 1.09356e-007 1.82252e-007 -6.44748 20.8389 2.51335 4.04526e-006 -1.31499e-006 3 -8.02938 -4.95156 -0.697692 175.564 -0.479964 0.401656 -180 7.0158e-015 179.078 179.982 9.27732 179.213 -3.16293e-006 -2.1062e-006 -0.0473381 -14.5216 68.1488 19.6176 8.13649 25.2327 -3.48774 -179.312 -2.37159 6.50657 4.54188e-006 -4.6773e-006 -1.43039 -4.4696 -10.7598 -0.218299 -2.79087e-006 2.9299e-007 -0.263536 25.0106 71.9984 -23.8982 -8.13649 25.2327 3.48774 
53.6794 94.1497 11.9288 -0.239805 -5.01421 -0.131918 -0.0789623 -0.933494 0.336273 -0.159034 2.11698 0.669408 -0.167253 3.76199 0.681853 -3.43528 13.5834 -1.85373 6.45467 -9.6523 -1.58685 79.4083 -4.36059 -4.05665 96.5399 14.8488 4.02482 3.57812e-015 0 2.38542e-015 15.005 24.875 -4.32081 3.90692e-006 -4.90297e-006 -3 8.02889 -4.95159 0.697764 -66.2215 1.8906 -0.0928093 -110.1 5.14356 -7.61232 -2.94453e-006 1.09356e-007 1.82252e-007 -6.40145 20.7869 2.49841 4.04526e-006 -1.31499e-006 3 -8.02938 -4.95156 -0.697692 175.573 -0.490477 0.398945 -180 7.0158e-015 179.078 179.981 9.26326 179.214 -3.16293e-006 -2.1062e-006 -0.0478154 -14.5161 68.1386 19.6099 8.13649 25.2327 -3.48774 -179.306 -2.37105 6.50181 4.54188e-006 -4.6773e-006 -1.43032 -4.4707 -10.7671 -0.219066 -2.79087e-006 2.9299e-007 -0.263488 25.0086 71.9972 -23.8955 -8.13649 25.2327 3.48774 
53.6855 94.1543 11.9308 -0.246022 -5.01798 -0.142883 -0.0783581 -0.933291 0.336283 -0.157659 2.11923 0.66894 -0.165871 3.76424 0.679946 -3.41538 13.5622 -1.84994 6.4377 -9.64256 -1.58072 79.4297 -4.3605 -4.05791 96.4877 14.8436 4.16079 -7.55382e-015 7.95139e-015 -1.59028e-015 14.9576 24.7475 -4.29458 3.90692e-006 -4.90297e-006 -3 8.02889 -4.95159 0.697764 -66.2016 1.88 -0.0899373 -110.112 5.07538 -7.71164 -2.94453e-006 1.09356e-007 1.82252e-007 -6.35624 20.7353 2.48367 4.04526e-006 -1.31499e-006 3 -8.02938 -4.95156 -0.697692 175.581 -0.501526 0.39638 -180 7.0158e-015 179.078 179.979 9.24816 179.215 -3.16293e-006 -2.1062e-006 -0.0483414 -14.5103 68.1279 19.6018 8.13649 25.2327 -3.48774 -179.299 -2.37045 6.4969 4.54188e-006 -4.6773e-006 -1.43024 -4.47192 -10.7743 -0.219856 -2.79087e-006 2.9299e-007 -0.263436 25.0065 71.996 -23.8926 -8.13649 25.2327 3.48774 
53.6884 94.1511 11.9347 -0.252254 -5.02174 -0.153849 -0.0777517 -0.933093 0.336293 -0.156281 2.12148 0.668468 -0.164487 3.76649 0.678029 -3.39546 13.5411 -1.84616 6.42073 -9.63278 -1.57459 79.4511 -4.36041 -4.05916 96.4357 14.8385 4.29641 -4.37326e-015 -1.59028e-015 -1.59028e-015 14.9104 24.6201 -4.26845 3.90692e-006 -4.90297e-006 -3 8.02889 -4.95159 0.697764 -66.1816 1.86938 -0.0870668 -110.125 5.00727 -7.81063 -2.94453e-006 1.09356e-007 1.82252e-007 -6.31126 20.6838 2.46898 4.04526e-006 -1.31499e-006 3 -8.02938 -4.95156 -0.697692 175.589 -0.512709 0.393852 -180 7.0158e-015 179.078 179.977 9.23279 179.216 -3.16293e-006 -2.1062e-006 -0.0488796 -14.5042 68.117 19.5936 8.13649 25.2327 -3.48774 -179.293 -2.36982 6.49194 4.54188e-006 -4.6773e-006 -1.43016 -4.47318 -10.7816 -0.220652 -2.79087e-006 2.9299e-007 -0.263383 25.0045 71.9947 -23.8897 -8.13649 25.2327 3.48774 
53.6864 94.1537 11.9485 -0.25846 -5.02551 -0.164811 -0.0771498 -0.932884 0.336303 -0.154908 2.12374 0.668004 -0.163108 3.76875 0.676132 -3.37557 13.5199 -1.84237 6.40376 -9.62308 -1.56845 79.4725 -4.36032 -4.06042 96.3834 14.8332 4.4327 3.77691e-015 -1.59028e-015 1.59028e-015 14.8631 24.4924 -4.24233 3.90692e-006 -4.90297e-006 -3 8.02889 -4.95159 0.697764 -66.1618 1.85881 -0.0841936 -110.138 4.93905 -7.91027 -2.94453e-006 1.09356e-007 1.82252e-007 -6.26592 20.6321 2.45422 4.04526e-006 -1.31499e-006 3 -8.02938 -4.95156 -0.697692 175.597 -0.523623 0.39125 -180 7.0158e-015 179.078 179.975 9.21795 179.217 -3.16293e-006 -2.1062e-006 -0.0493934 -14.4985 68.1063 19.5856 8.13649 25.2327 -3.48774 -179.286 -2.36923 6.48706 4.54188e-006 -4.6773e-006 -1.43009 -4.47437 -10.7888 -0.221437 -2.79087e-006 2.9299e-007 -0.263332 25.0024 71.9934 -23.8869 -8.13649 25.2327 3.48774 
53.6808 94.1523 11.948 -0.264596 -5.02927 -0.175763 -0.0765594 -0.932647 0.336313 -0.153549 2.12602 0.66756 -0.161743 3.77103 0.674283 -3.35574 13.4986 -1.83857 6.38682 -9.61358 -1.56231 79.4938 -4.36022 -4.06167 96.3306 14.8273 4.57068 -8.54774e-015 -1.59028e-015 -1.59028e-015 14.815 24.364 -4.2161 3.90692e-006 -4.90297e-006 -3 8.02889 -4.95159 0.697764 -66.1424 1.84832 -0.0813138 -110.15 4.87054 -8.01156 -2.94453e-006 1.09356e-007 1.82252e-007 -6.21961 20.58 2.43923 4.04526e-006 -1.31499e-006 3 -8.02938 -4.95156 -0.697692 175.605 -0.533869 0.388466 -180 7.0158e-015 179.078 179.973 9.20439 179.218 -3.16293e-006 -2.1062e-006 -0.0498464 -14.4934 68.0964 19.5782 8.13649 25.2327 -3.48774 -179.279 -2.36873 6.48239 4.54188e-006 -4.6773e-006 -1.43003 -4.47541 -10.7961 -0.222192 -2.79087e-006 2.9299e-007 -0.263287 25.0005 71.9922 -23.8841 -8.13649 25.2327 3.48774 
53.6797 94.1536 11.9385 -0.270621 -5.03303 -0.186697 -0.0759874 -0.932365 0.336323 -0.152211 2.12834 0.667149 -0.160399 3.77335 0.672513 -3.33602 13.4773 -1.83475 6.36992 -9.6044 -1.55615 79.515 -4.36012 -4.06291 96.2771 14.8206 4.71138 7.95139e-016 0 -0 14.7657 24.2345 -4.18965 3.90692e-006 -4.90297e-006 -3 8.02889 -4.95159 0.697764 -66.1236 1.83799 -0.0784236 -110.162 4.80155 -8.11548 -2.94453e-006 1.09356e-007 1.82252e-007 -6.17174 20.5272 2.42387 4.04526e-006 -1.31499e-006 3 -8.02938 -4.95156 -0.697692 175.613 -0.543045 0.385389 -180 7.0158e-015 179.078 179.973 9.19293 179.218 -3.16293e-006 -2.1062e-006 -0.0502022 -14.4892 68.0877 19.5717 8.13649 25.2327 -3.48774 -179.273 -2.36837 6.47804 4.54188e-006 -4.6773e-006 -1.42998 -4.47621 -10.8033 -0.2229 -2.79087e-006 2.9299e-007 -0.263253 24.9986 71.991 -23.8815 -8.13649 25.2327 3.48774 
53.6839 94.1529 11.9457 -0.276492 -5.03679 -0.197608 -0.0754406 -0.932022 0.336332 -0.150902 2.13072 0.666783 -0.159085 3.77573 0.670851 -3.31646 13.4559 -1.8309 6.35308 -9.59567 -1.54998 79.536 -4.36001 -4.06413 96.2224 14.8129 4.8558 -4.17448e-015 3.18055e-015 -3.18055e-015 14.7146 24.1033 -4.16288 3.90692e-006 -4.90297e-006 -3 8.02889 -4.95159 0.697764 -66.1058 1.82786 -0.0755188 -110.173 4.7319 -8.22303 -2.94453e-006 1.09356e-007 1.82252e-007 -6.12173 20.4736 2.408 4.04526e-006 -1.31499e-006 3 -8.02938 -4.95156 -0.697692 175.621 -0.550749 0.38191 -180 7.0158e-015 179.078 179.973 9.18431 179.218 -3.16293e-006 -2.1062e-006 -0.0504242 -14.4865 68.0804 19.5663 8.13649 25.2327 -3.48774 -179.268 -2.36821 6.47415 4.54188e-006 -4.6773e-006 -1.42995 -4.47668 -10.8105 -0.223543 -2.79087e-006 2.9299e-007 -0.263232 24.997 71.99 -23.8792 -8.13649 25.2327 3.48774 
53.6822 94.155 11.9493 -0.282167 -5.04054 -0.208489 -0.074926 -0.931601 0.336341 -0.149631 2.13316 0.666473 -0.157808 3.77818 0.669325 -3.29709 13.4343 -1.82702 6.33632 -9.5875 -1.54378 79.5567 -4.35989 -4.06533 96.1663 14.8039 5.00496 1.03368e-014 4.77083e-015 1.59028e-015 14.6614 23.9702 -4.13568 3.90692e-006 -4.90297e-006 -3 8.02889 -4.95159 0.697764 -66.0891 1.81799 -0.0725956 -110.182 4.66139 -8.3352 -2.94453e-006 1.09356e-007 1.82252e-007 -6.06898 20.4188 2.39148 4.04526e-006 -1.31499e-006 3 -8.02938 -4.95156 -0.697692 175.628 -0.55658 0.377919 -180 7.0158e-015 179.078 179.974 9.17931 179.218 -3.16293e-006 -2.1062e-006 -0.050476 -14.4855 68.0752 19.5625 8.13649 25.2327 -3.48774 -179.262 -2.36829 6.47082 4.54188e-006 -4.6773e-006 -1.42994 -4.47672 -10.8177 -0.224104 -2.79087e-006 2.9299e-007 -0.263229 24.9956 71.989 -23.877 -8.13649 25.2327 3.48774 
53.6803 94.1545 11.9506 -0.287604 -5.04428 -0.219334 -0.0744504 -0.931084 0.336349 -0.148405 2.13569 0.666233 -0.156577 3.78071 0.667966 -3.27796 13.4126 -1.82309 6.31965 -9.58001 -1.53755 79.5772 -4.35975 -4.06652 96.1086 14.7932 5.15989 -9.93923e-016 1.59028e-015 -1.59028e-015 14.6053 23.8345 -4.10795 3.90692e-006 -4.90297e-006 -3 8.02889 -4.95159 0.697764 -66.0737 1.80844 -0.0696499 -110.19 4.58984 -8.45298 -2.94453e-006 1.09356e-007 1.82252e-007 -6.01291 20.3626 2.37417 4.04526e-006 -1.31499e-006 3 -8.02938 -4.95156 -0.697692 175.635 -0.560136 0.373307 -180 7.0158e-015 179.078 179.977 9.17874 179.218 -3.16293e-006 -2.1062e-006 -0.0503212 -14.4865 68.0723 19.5605 8.13649 25.2327 -3.48774 -179.258 -2.36867 6.46819 4.54188e-006 -4.6773e-006 -1.42997 -4.47625 -10.8249 -0.224566 -2.79087e-006 2.9299e-007 -0.263247 24.9944 71.9881 -23.8752 -8.13649 25.2327 3.48774 
53.6759 94.1491 11.9505 -0.29276 -5.04801 -0.230135 -0.0740207 -0.930456 0.336357 -0.147232 2.13832 0.666073 -0.1554 3.78334 0.666803 -3.25911 13.3907 -1.81911 6.30309 -9.57333 -1.53129 79.5973 -4.3596 -4.06767 96.0488 14.7806 5.32158 -2.5842e-015 4.77083e-015 -1.59028e-015 14.546 23.696 -4.07957 3.90692e-006 -4.90297e-006 -3 8.02889 -4.95159 0.697764 -66.0601 1.79926 -0.0666778 -110.196 4.51707 -8.57736 -2.94453e-006 1.09356e-007 1.82252e-007 -5.95291 20.3049 2.35592 4.04526e-006 -1.31499e-006 3 -8.02938 -4.95156 -0.697692 175.642 -0.561016 0.367963 -180 7.0158e-015 179.078 179.981 9.18336 179.217 -3.16293e-006 -2.1062e-006 -0.0499231 -14.4901 68.0723 19.5608 8.13649 25.2327 -3.48774 -179.254 -2.3694 6.46637 4.54188e-006 -4.6773e-006 -1.43003 -4.47518 -10.8321 -0.22491 -2.79087e-006 2.9299e-007 -0.26329 24.9936 71.9874 -23.8737 -8.13649 25.2327 3.48774 
